<?xml version="1.0" encoding="utf-8"?>
<?xml-stylesheet type="text/xsl" href="rss1.xsl"?>
<rss version="2.0" xmlns:atom="http://www.w3.org/2005/Atom" xmlns:content="http://purl.org/rss/1.0/modules/content/" xmlns:dc="http://purl.org/dc/elements/1.1/" xmlns:media="http://search.yahoo.com/mrss/">
<channel>
 <title>Getty</title>
 <link>http://www.gettyimg.com/</link>
 <atom:link href="http://www.gettyimg.com/" rel="self" type="application/rss+xml" />

 
                <item>
                <title><![CDATA[【PRORES HD】Rita Ora - Barricades |ProRes 1840|]]></title>
                <link><![CDATA[https://sharemania.us/threads/rita-ora-barricades-prores-1840.229501/]]></link>
                <description><![CDATA[<article>
<blockquote class="messageText SelectQuoteContainer ugc baseHtml">
<div style="text-align: center"><img src="https://i.imgur.com/LJ8HYyq.gif" class="bbCodeImage LbImage" alt="[​IMG]" data-url="https://i.imgur.com/LJ8HYyq.gif" style=""><br>
​</div>
<div class="ToggleTriggerAnchor bbCodeSpoilerContainer">
<button type="button" class="button bbCodeSpoilerButton ToggleTrigger Tooltip JsOnly" data-target="> .SpoilerTarget"><span>Spoiler: <span class="SpoilerTitle">ProRes</span></span></button>
<div class="SpoilerTarget bbCodeSpoilerText">
<div class="bbCodeBlock bbCodeCode">
<div class="type">Code:</div>
<pre>Format                                   : MPEG-4
Format profile                           : QuickTime
Codec ID                                 : qt   2005.03 (qt  )
File size                                : 12.4 GiB
Duration                                 : 2 min 35 s
Overall bit rate mode                    : Variable
Overall bit rate                         : 685 Mb/s
Encoded date                             : UTC 2022-06-20 15:30:57
Tagged date                              : UTC 2022-06-20 15:31:36
Writing library                          : Apple QuickTime
TIM                                      : 00:00:02:12
TSC                                      : 24000
TSZ                                      : 1001

Video
ID                                       : 1
Format                                   : ProRes
Format version                           : Version 0
Format profile                           : 422 HQ
Codec ID                                 : apch
Duration                                 : 2 min 35 s
Bit rate mode                            : Variable
Bit rate                                 : 684 Mb/s
Width                                    : 4 480 pixels
Height                                   : 1 840 pixels
Display aspect ratio                     : 2.40:1
Frame rate mode                          : Constant
Frame rate                               : 23.976 (24000/1001) FPS
Color space                              : YUV
Chroma subsampling                       : 4:2:2
Scan type                                : Progressive
Bits/(Pixel*Frame)                       : 3.460
Stream size                              : 12.4 GiB (100%)
Writing library                          : Apple
Language                                 : English
Encoded date                             : UTC 2022-06-20 15:30:57
Tagged date                              : UTC 2022-06-20 15:30:57
Color primaries                          : BT.709
Transfer characteristics                 : BT.709
Matrix coefficients                      : BT.709

Audio
ID                                       : 2
Format                                   : PCM
Format settings                          : Little / Signed
Codec ID                                 : sowt
Duration                                 : 2 min 35 s
Bit rate mode                            : Constant
Bit rate                                 : 1 536 kb/s
Channel(s)                               : 2 channels
Channel layout                           : L R
Sampling rate                            : 48.0 kHz
Bit depth                                : 16 bits
Stream size                              : 28.4 MiB (0%)
Language                                 : English
Encoded date                             : UTC 2022-06-20 15:30:57
Tagged date                              : UTC 2022-06-20 15:30:57

Other
ID                                       : 3
Type                                     : Time code
Format                                   : QuickTime TC
Duration                                 : 2 min 35 s
Frame rate                               : 23.976 (24000/1001) FPS
Time code of first frame                 : 00:00:02:12
Time code, striped                       : Yes
Language                                 : English
Encoded date                             : UTC 2022-06-20 15:30:57
Tagged date                              : UTC 2022-06-20 15:30:57</pre>
</div><div style="text-align: center">​</div></div>
</div><div style="text-align: center"><br>
<br>
<div class="bbCodeBlock bbCodeVfcHH HiddenContent">
<div class="attribution type">Hidden Content:</div>
<blockquote>You must reply before you can see the hidden data contained here.</blockquote>
</div></div>
<div class="messageTextEndMarker">&nbsp;</div>
</blockquote>
</article>]]></description>
                <author><![CDATA[fstambuk]]></author>
                </item>

                
                <item>
                <title><![CDATA[【Music Videos】PACK - MTV Classic 002 (2023) (fan Made)]]></title>
                <link><![CDATA[https://sharemania.us/threads/mtv-classic-002-2023-fan-made.229503/]]></link>
                <description><![CDATA[<article>
<blockquote class="messageText SelectQuoteContainer ugc baseHtml">
<div style="text-align: center"><img src="https://i.postimg.cc/QM1yVmN5/Instant-neo000005.png" class="bbCodeImage LbImage" alt="[​IMG]" data-url="https://i.postimg.cc/QM1yVmN5/Instant-neo000005.png" style=""> <br>
<img src="https://i.postimg.cc/90zXmD1M/CLASSIC-MTV-002-2023-FAN-MADE-mp4-thumbs.jpg" class="bbCodeImage LbImage" alt="[​IMG]" data-url="https://i.postimg.cc/90zXmD1M/CLASSIC-MTV-002-2023-FAN-MADE-mp4-thumbs.jpg" style=""> ​</div><br>
<span style="font-family: 'Trebuchet MS'">01 Ace Of Base - Beautiful Life <br>
02 Mariah Carey - My All<br>
03 The Cover Girls - Wishing On A Star <br>
04 Yvonne Elliman - If I Can´t Have You <br>
05 Dead Or Alive - You Spin Me Round (Like a Record)<br>
06 Icehouse - No Promises<br>
07 Starship - Sara<br>
08 Mr. Mister - Broken Wings<br>
09 Tasmin Archer - Sleeping Satellite<br>
10 Cyndi Lauper - Girls Just Want To Have Fun<br>
11 Madonna - Cherish<br>
12 Tori Amos - Silent All These Years<br>
13 Rufus Featuring Chaka Khan - Ain't Nobody ('89 Remix) <br>
14 Sandra - (I'll Never Be) Maria Magdalena<br>
15 Shakira - Dónde Estás Corazón?<br>
<br>
<span style="font-size: 9px">*Novák Edited Video<br>
℗ 2023 © Copyright All rights reserved MTV / No intention to Infringe Copyright.</span><br>
<br>
<div style="text-align: center">
<div class="bbCodeBlock bbCodeVfcHH HiddenContent">
<div class="attribution type">Hidden Content:</div>
<blockquote>You must either reply or click 'Like' to see the hidden information contained here.</blockquote>
</div><span style="font-size: 10px"><br>
<br>
<br>
© Copyright Disclaimer Under Section 107 of the Copyright Act 1976, allowance is made for "fair use" for purposes such as criticism, comment, news reporting, teaching, scholarship, and research. Fair use is a use permitted by copyright statute that might otherwise be infringing. Non-profit, educational or personal use tips the balance in favor of fair use.<br>
</span>​</div></span><br>
<br>
<div class="messageTextEndMarker">&nbsp;</div>
</blockquote>
</article>]]></description>
                <author><![CDATA[Fan Made]]></author>
                </item>

                
                <item>
                <title><![CDATA[【Albums (lossy)】MP3 - Labrinth, Sia, and Diplo - LSD]]></title>
                <link><![CDATA[https://sharemania.us/threads/labrinth-sia-and-diplo-lsd.229499/]]></link>
                <description><![CDATA[<article>
<blockquote class="messageText SelectQuoteContainer ugc baseHtml">
<a href="https://imgbox.com/xWo9oKks" target="_blank" class="externalLink" rel="nofollow"><img src="https://thumbs2.imgbox.com/16/7f/xWo9oKks_t.jpg" class="bbCodeImage LbImage" alt="[​IMG]" data-url="https://thumbs2.imgbox.com/16/7f/xWo9oKks_t.jpg"></a><br>
<br>
Genre: Pop, Electropop, Dance-pop, R&amp;B<br>
Artist: LSD, Labrinth, Sia, Diplo<br>
Album: Labrinth, Sia, and Diplo Present: LSD<br>
Tracklist:<br>
<ol>
<li>Welcome to the Wonderful World Of</li>
<li>Angel in Your Eyes</li>
<li>Genius</li>
<li>Audio</li>
<li>Thunderclouds</li>
<li>Mountains</li>
<li>No New Friends</li>
<li>Heaven Can Wait</li>
<li>It's Time</li>
<li>Genius (Lil Wayne Remix) [ft. Lil Wayne]</li>
</ol><b>USE <a href="https://www.base64decode.org/" target="_blank" class="externalLink" rel="nofollow">https://www.base64decode.org/</a> or <a href="https://toolbox.googleapps.com/apps/encode_decode/" target="_blank" class="externalLink" rel="nofollow">https://toolbox.googleapps.com/apps/encode_decode/</a> TO DECODE THE LINK</b><br>
<br>
<div class="bbCodeBlock bbCodeVfcHH HiddenContent">
<div class="attribution type">Hidden Content:</div>
<blockquote>You must either reply or click 'Like' to see the hidden information contained here.</blockquote>
</div>
<div class="messageTextEndMarker">&nbsp;</div>
</blockquote>
</article>]]></description>
                <author><![CDATA[hgtvelesion]]></author>
                </item>

                
                <item>
                <title><![CDATA[【UPSCALED】Binary Finary - 1999 [1080p AI Upscale | PCM 16-bit 48 kHz]]]></title>
                <link><![CDATA[https://sharemania.us/threads/binary-finary-1999-1080p-ai-upscale-pcm-16-bit-48-khz.229500/]]></link>
                <description><![CDATA[<article>
<blockquote class="messageText SelectQuoteContainer ugc baseHtml">
<b><img src="https://images2.imgbox.com/7a/3e/W0MEBZZv_o.jpg" class="bbCodeImage LbImage" alt="[​IMG]" data-url="https://images2.imgbox.com/7a/3e/W0MEBZZv_o.jpg" style=""> <br>
<br>
Genre: <span style="color: #0059b3">Electronic</span> <br>
Style: <span style="color: #0059b3">Trance</span> <br>
Year: <span style="color: #0059b3">1999</span> <br>
Source: <span style="color: #0059b3">DVD</span></b><br>
<br>
"<b>1999</b>" is a remix by EDM duo Binary Finary. Binary Finary are a British trance act, originally comprising Matt Laws, Ricky Grant and Stuart Matheson. They first gained widespread recognition in 1997 with the release of their hit single "1998." This track made a significant impact on the club scene and became the first electronic dance track to enter the UK Top 30. It took dance floors by storm, with its powerful chord changes, heart-stopping breakdown and dramatic crescendos. The track has been featured on numerous mix compilations and has proved a favourite with many notable DJs such as Paul Van Dyk (who remixed the track), Paul Oakenfold and Judge Jules, solidifying its status as a Trance Classic. Positiva Records re-released the track as ‘1999’ in that year, in a two-disc format, featuring remixes from Van Dyk, Matt Darey, Gouryella (DJ Tiësto and Ferry Corsten) and Kaycee. It proved a crossover success, reaching number 11 in the UK charts. Binary Finary performed live at numerous club events and festivals in 1998 and 1999, including Glastonbury Festival, Cream’s Creamfields and in Ibiza.<br>
<br>
Now, 25 years later, Binary Finary continue to captivate fans and critics around the world with their innovative music and live performances. Their live shows are known for their technical prowess and immersive experience, as the duo expertly combines visuals, lighting, and live mixing to create a memorable experience for their audience.<br>
<br>
In addition to their original productions, Binary Finary has also built a reputation for their remixes, giving new life to classic tracks while introducing them to a new generation of dance music fans. This ability to continuously evolve and stay relevant in the ever-changing world of electronic dance music has been a key factor in their longevity and success.<br>
<br>
As the duo continues to produce fresh content and explore new avenues in their music, Binary Finary remains a prominent force in the dance music scene, consistently delivering high-quality releases that resonate with fans and keep them coming back for more.<br>
<br>
<div class="ToggleTriggerAnchor bbCodeSpoilerContainer">
<button type="button" class="button bbCodeSpoilerButton ToggleTrigger Tooltip JsOnly" data-target="> .SpoilerTarget"><span>Spoiler: <span class="SpoilerTitle">Media Info</span></span></button>
<div class="SpoilerTarget bbCodeSpoilerText">
<div class="bbCodeBlock bbCodeCode">
<div class="type">Code:</div>
<pre>General

Unique ID                      : 223824569190883430558235630791265718127 (0xA8630B4433B47B639A02A8865B418F6F)
Complete name                  : Binary Finary - 1999.mkv
Format                         : Matroska
Format version                 : Version 4 / Version 2
File size                      : 391 MiB
Duration                       : 3 min 8 s
Overall bit rate mode          : Variable
Overall bit rate               : 17.4 Mb/s
Frame rate                     : 25.000 FPS
Encoded date                   : 2023-09-30 16:33:31 UTC
Writing application            : mkvmerge v76.0 ('Celebration') 64-bit
Writing library                : libebml v1.4.4 + libmatroska v1.7.1

Video
ID                             : 1
Format                         : AVC
Format/Info                    : Advanced Video Codec
Format profile                 : High@L4
Format settings                : CABAC / 4 Ref Frames
Format settings, CABAC         : Yes
Format settings, Reference fra : 4 frames
Codec ID                       : V_MPEG4/ISO/AVC
Duration                       : 3 min 8 s
Bit rate mode                  : Variable
Bit rate                       : 15.6 Mb/s
Maximum bit rate               : 16.0 Mb/s
Width                          : 1 920 pixels
Height                         : 1 080 pixels
Display aspect ratio           : 16:9
Original display aspect ratio  : 16:9
Frame rate mode                : Constant
Frame rate                     : 25.000 FPS
Color space                    : YUV
Chroma subsampling             : 4:2:0
Bit depth                      : 8 bits
Scan type                      : Progressive
Bits/(Pixel*Frame)             : 0.301
Stream size                    : 350 MiB (90%)
Language                       : English
Default                        : No
Forced                         : No
Color range                    : Limited
Color primaries                : BT.601 PAL
Transfer characteristics       : BT.470 System B/G
Matrix coefficients            : BT.470 System B/G

Audio #1
ID                             : 2
Format                         : PCM
Format settings                : Little / Signed
Codec ID                       : A_PCM/INT/LIT
Duration                       : 3 min 8 s
Bit rate mode                  : Constant
Bit rate                       : 1 536 kb/s
Channel(s)                     : 2 channels
Sampling rate                  : 48.0 kHz
Frame rate                     : 25.004 FPS (1920 SPF)
Bit depth                      : 16 bits
Stream size                    : 34.4 MiB (9%)
Language                       : English
Default                        : Yes
Forced                         : No

Audio #2
ID                             : 3
Format                         : AC-3
Format/Info                    : Audio Coding 3
Commercial name                : Dolby Digital
Codec ID                       : A_AC3
Duration                       : 3 min 8 s
Bit rate mode                  : Constant
Bit rate                       : 256 kb/s
Channel(s)                     : 2 channels
Channel layout                 : L R
Sampling rate                  : 48.0 kHz
Frame rate                     : 31.250 FPS (1536 SPF)
Bit depth                      : 32 bits
Compression mode               : Lossy
Stream size                    : 5.75 MiB (1%)
Language                       : English
Service kind                   : Complete Main
Default                        : No
Forced                         : No
</pre>
</div></div>
</div><br>
<div class="bbCodeBlock bbCodeVfcHH HiddenContent">
<div class="attribution type">Hidden Content:</div>
<blockquote>You must reply before you can see the hidden data contained here.</blockquote>
</div>
<div class="messageTextEndMarker">&nbsp;</div>
</blockquote>
</article>]]></description>
                <author><![CDATA[ADHDerby]]></author>
                </item>

                
                <item>
                <title><![CDATA[【Albums (lossless)】PACK - Mara Maravilha - Secular Oficial - 12 Albuns [WEB][FLAC]]]></title>
                <link><![CDATA[https://sharemania.us/threads/mara-maravilha-secular-oficial-12-albuns-web-flac.229502/]]></link>
                <description><![CDATA[<article>
<blockquote class="messageText SelectQuoteContainer ugc baseHtml">
<div style="text-align: center"><img src="https://i.postimg.cc/W3wDxcKp/MARA-FLAC.jpg" class="bbCodeImage LbImage" alt="[​IMG]" data-url="https://i.postimg.cc/W3wDxcKp/MARA-FLAC.jpg" style=""> <br>
<br>
<br>
<div class="bbCodeBlock bbCodeVfcHH HiddenContent">
<div class="attribution type">Hidden Content:</div>
<blockquote>You must either reply or click 'Like' to see the hidden information contained here.</blockquote>
</div></div>
<div class="messageTextEndMarker">&nbsp;</div>
</blockquote>
</article>]]></description>
                <author><![CDATA[Fan Made]]></author>
                </item>

                </channel></rss>